<svg width="19" height="14" viewBox="0 0 19 14" fill="none" xmlns="http://www.w3.org/2000/svg">
<path d="M7.15303 13.4965C6.72215 13.4965 6.29127 13.333 5.96234 13.0041L1.39769 8.43942C0.739831 7.78156 0.739831 6.7159 1.39769 6.05996C2.05556 5.4021 3.11929 5.40018 3.77715 6.05804L7.15303 9.43391L15.0935 1.4934C15.7514 0.835534 16.8151 0.835534 17.473 1.4934C18.1309 2.15126 18.1309 3.21692 17.473 3.87478L8.34372 13.0041C8.01479 13.333 7.58391 13.4965 7.15303 13.4965Z" fill="#130F26"/>
<path d="M7.15303 13.4965C6.72215 13.4965 6.29127 13.333 5.96234 13.0041L1.39769 8.43942C0.739831 7.78156 0.739831 6.7159 1.39769 6.05996C2.05556 5.4021 3.11929 5.40018 3.77715 6.05804L7.15303 9.43391L15.0935 1.4934C15.7514 0.835534 16.8151 0.835534 17.473 1.4934C18.1309 2.15126 18.1309 3.21692 17.473 3.87478L8.34372 13.0041C8.01479 13.333 7.58391 13.4965 7.15303 13.4965" stroke="#FFD196"/>
</svg>
