<svg width="150" height="50" viewBox="0 0 150 50" fill="none" xmlns="http://www.w3.org/2000/svg">
<rect width="150" height="50" rx="10" fill="#ADB9CA"/>
<path d="M50.9886 21.01C50.6286 20.542 50.1726 20.182 49.6206 19.93C49.0686 19.678 48.4986 19.552 47.9106 19.552C47.1906 19.552 46.5366 19.69 45.9486 19.966C45.3726 20.23 44.8746 20.596 44.4546 21.064C44.0466 21.532 43.7286 22.084 43.5006 22.72C43.2726 23.344 43.1586 24.016 43.1586 24.736C43.1586 25.408 43.2666 26.044 43.4826 26.644C43.6986 27.244 44.0106 27.772 44.4186 28.228C44.8266 28.684 45.3246 29.044 45.9126 29.308C46.5006 29.572 47.1666 29.704 47.9106 29.704C48.6426 29.704 49.2846 29.554 49.8366 29.254C50.3886 28.954 50.8566 28.534 51.2406 27.994L52.6986 29.092C52.6026 29.224 52.4346 29.416 52.1946 29.668C51.9546 29.908 51.6366 30.154 51.2406 30.406C50.8446 30.646 50.3646 30.856 49.8006 31.036C49.2486 31.228 48.6066 31.324 47.8746 31.324C46.8666 31.324 45.9546 31.132 45.1386 30.748C44.3346 30.364 43.6446 29.86 43.0686 29.236C42.5046 28.612 42.0726 27.91 41.7726 27.13C41.4726 26.338 41.3226 25.54 41.3226 24.736C41.3226 23.752 41.4846 22.846 41.8086 22.018C42.1326 21.178 42.5826 20.458 43.1586 19.858C43.7466 19.246 44.4486 18.772 45.2646 18.436C46.0806 18.1 46.9806 17.932 47.9646 17.932C48.8046 17.932 49.6266 18.094 50.4306 18.418C51.2466 18.742 51.9126 19.24 52.4286 19.912L50.9886 21.01ZM54.3744 17.392H55.9944V23.782H56.0304C56.2344 23.326 56.5884 22.96 57.0924 22.684C57.5964 22.396 58.1784 22.252 58.8384 22.252C59.2464 22.252 59.6364 22.318 60.0084 22.45C60.3924 22.57 60.7224 22.762 60.9984 23.026C61.2864 23.29 61.5144 23.632 61.6824 24.052C61.8504 24.46 61.9344 24.946 61.9344 25.51V31H60.3144V25.96C60.3144 25.564 60.2604 25.228 60.1524 24.952C60.0444 24.664 59.9004 24.436 59.7204 24.268C59.5404 24.088 59.3304 23.962 59.0904 23.89C58.8624 23.806 58.6224 23.764 58.3704 23.764C58.0344 23.764 57.7224 23.818 57.4344 23.926C57.1464 24.034 56.8944 24.208 56.6784 24.448C56.4624 24.676 56.2944 24.97 56.1744 25.33C56.0544 25.69 55.9944 26.116 55.9944 26.608V31H54.3744V17.392ZM65.6903 26.734C65.6903 27.166 65.7563 27.568 65.8883 27.94C66.0203 28.3 66.2063 28.612 66.4463 28.876C66.6863 29.128 66.9803 29.332 67.3283 29.488C67.6763 29.632 68.0663 29.704 68.4983 29.704C68.9303 29.704 69.3203 29.632 69.6683 29.488C70.0163 29.332 70.3103 29.128 70.5503 28.876C70.7903 28.612 70.9763 28.3 71.1083 27.94C71.2403 27.568 71.3063 27.166 71.3063 26.734C71.3063 26.302 71.2403 25.906 71.1083 25.546C70.9763 25.174 70.7903 24.862 70.5503 24.61C70.3103 24.346 70.0163 24.142 69.6683 23.998C69.3203 23.842 68.9303 23.764 68.4983 23.764C68.0663 23.764 67.6763 23.842 67.3283 23.998C66.9803 24.142 66.6863 24.346 66.4463 24.61C66.2063 24.862 66.0203 25.174 65.8883 25.546C65.7563 25.906 65.6903 26.302 65.6903 26.734ZM63.9623 26.734C63.9623 26.11 64.0763 25.528 64.3043 24.988C64.5443 24.448 64.8683 23.974 65.2763 23.566C65.6843 23.158 66.1643 22.84 66.7163 22.612C67.2683 22.372 67.8623 22.252 68.4983 22.252C69.1343 22.252 69.7283 22.372 70.2803 22.612C70.8323 22.84 71.3123 23.158 71.7203 23.566C72.1283 23.974 72.4463 24.448 72.6743 24.988C72.9143 25.528 73.0343 26.11 73.0343 26.734C73.0343 27.358 72.9143 27.946 72.6743 28.498C72.4463 29.038 72.1283 29.512 71.7203 29.92C71.3123 30.316 70.8323 30.634 70.2803 30.874C69.7283 31.102 69.1343 31.216 68.4983 31.216C67.8623 31.216 67.2683 31.102 66.7163 30.874C66.1643 30.634 65.6843 30.316 65.2763 29.92C64.8683 29.512 64.5443 29.038 64.3043 28.498C64.0763 27.946 63.9623 27.358 63.9623 26.734ZM76.3778 26.734C76.3778 27.166 76.4438 27.568 76.5758 27.94C76.7078 28.3 76.8938 28.612 77.1338 28.876C77.3738 29.128 77.6678 29.332 78.0158 29.488C78.3638 29.632 78.7538 29.704 79.1858 29.704C79.6178 29.704 80.0078 29.632 80.3558 29.488C80.7038 29.332 80.9978 29.128 81.2378 28.876C81.4778 28.612 81.6638 28.3 81.7958 27.94C81.9278 27.568 81.9938 27.166 81.9938 26.734C81.9938 26.302 81.9278 25.906 81.7958 25.546C81.6638 25.174 81.4778 24.862 81.2378 24.61C80.9978 24.346 80.7038 24.142 80.3558 23.998C80.0078 23.842 79.6178 23.764 79.1858 23.764C78.7538 23.764 78.3638 23.842 78.0158 23.998C77.6678 24.142 77.3738 24.346 77.1338 24.61C76.8938 24.862 76.7078 25.174 76.5758 25.546C76.4438 25.906 76.3778 26.302 76.3778 26.734ZM74.6498 26.734C74.6498 26.11 74.7638 25.528 74.9918 24.988C75.2318 24.448 75.5558 23.974 75.9638 23.566C76.3718 23.158 76.8518 22.84 77.4038 22.612C77.9558 22.372 78.5498 22.252 79.1858 22.252C79.8218 22.252 80.4158 22.372 80.9678 22.612C81.5198 22.84 81.9998 23.158 82.4078 23.566C82.8158 23.974 83.1338 24.448 83.3618 24.988C83.6018 25.528 83.7218 26.11 83.7218 26.734C83.7218 27.358 83.6018 27.946 83.3618 28.498C83.1338 29.038 82.8158 29.512 82.4078 29.92C81.9998 30.316 81.5198 30.634 80.9678 30.874C80.4158 31.102 79.8218 31.216 79.1858 31.216C78.5498 31.216 77.9558 31.102 77.4038 30.874C76.8518 30.634 76.3718 30.316 75.9638 29.92C75.5558 29.512 75.2318 29.038 74.9918 28.498C74.7638 27.946 74.6498 27.358 74.6498 26.734ZM90.2873 24.61C90.0953 24.37 89.8553 24.172 89.5673 24.016C89.2913 23.848 88.9493 23.764 88.5413 23.764C88.1573 23.764 87.8213 23.848 87.5333 24.016C87.2573 24.172 87.1193 24.406 87.1193 24.718C87.1193 24.97 87.1973 25.174 87.3533 25.33C87.5213 25.486 87.7133 25.612 87.9293 25.708C88.1573 25.804 88.3973 25.876 88.6493 25.924C88.9013 25.972 89.1173 26.014 89.2973 26.05C89.6453 26.134 89.9693 26.236 90.2693 26.356C90.5813 26.476 90.8453 26.632 91.0613 26.824C91.2893 27.016 91.4633 27.25 91.5833 27.526C91.7153 27.802 91.7813 28.138 91.7813 28.534C91.7813 29.014 91.6793 29.428 91.4753 29.776C91.2713 30.112 91.0073 30.388 90.6833 30.604C90.3593 30.82 89.9873 30.976 89.5673 31.072C89.1593 31.168 88.7453 31.216 88.3253 31.216C87.6173 31.216 86.9933 31.108 86.4533 30.892C85.9253 30.676 85.4513 30.28 85.0313 29.704L86.2553 28.696C86.5193 28.96 86.8133 29.194 87.1373 29.398C87.4613 29.602 87.8573 29.704 88.3253 29.704C88.5293 29.704 88.7333 29.686 88.9373 29.65C89.1533 29.602 89.3393 29.536 89.4953 29.452C89.6633 29.356 89.7953 29.242 89.8913 29.11C89.9993 28.966 90.0533 28.804 90.0533 28.624C90.0533 28.384 89.9753 28.186 89.8193 28.03C89.6753 27.874 89.4953 27.754 89.2793 27.67C89.0753 27.574 88.8533 27.502 88.6133 27.454C88.3853 27.394 88.1813 27.346 88.0013 27.31C87.6533 27.226 87.3233 27.13 87.0113 27.022C86.6993 26.914 86.4233 26.77 86.1833 26.59C85.9433 26.41 85.7513 26.182 85.6073 25.906C85.4633 25.63 85.3913 25.288 85.3913 24.88C85.3913 24.436 85.4813 24.052 85.6613 23.728C85.8533 23.392 86.0993 23.116 86.3993 22.9C86.7113 22.684 87.0593 22.522 87.4433 22.414C87.8393 22.306 88.2353 22.252 88.6313 22.252C89.2073 22.252 89.7593 22.36 90.2873 22.576C90.8153 22.792 91.2353 23.152 91.5473 23.656L90.2873 24.61ZM94.9734 27.328C94.9734 27.7 95.0514 28.042 95.2074 28.354C95.3754 28.654 95.5914 28.912 95.8554 29.128C96.1194 29.344 96.4254 29.512 96.7734 29.632C97.1214 29.752 97.4814 29.812 97.8534 29.812C98.3574 29.812 98.7954 29.698 99.1674 29.47C99.5394 29.23 99.8814 28.918 100.193 28.534L101.417 29.47C100.517 30.634 99.2574 31.216 97.6374 31.216C96.9654 31.216 96.3534 31.102 95.8014 30.874C95.2614 30.646 94.7994 30.334 94.4154 29.938C94.0434 29.53 93.7554 29.056 93.5514 28.516C93.3474 27.964 93.2454 27.37 93.2454 26.734C93.2454 26.098 93.3534 25.51 93.5694 24.97C93.7974 24.418 94.1034 23.944 94.4874 23.548C94.8834 23.14 95.3514 22.822 95.8914 22.594C96.4314 22.366 97.0194 22.252 97.6554 22.252C98.4114 22.252 99.0474 22.384 99.5634 22.648C100.091 22.912 100.523 23.26 100.859 23.692C101.195 24.112 101.435 24.592 101.579 25.132C101.735 25.66 101.813 26.2 101.813 26.752V27.328H94.9734ZM100.085 26.032C100.073 25.672 100.013 25.342 99.9054 25.042C99.8094 24.742 99.6594 24.484 99.4554 24.268C99.2514 24.04 98.9934 23.866 98.6814 23.746C98.3814 23.614 98.0274 23.548 97.6194 23.548C97.2234 23.548 96.8574 23.626 96.5214 23.782C96.1974 23.926 95.9214 24.118 95.6934 24.358C95.4654 24.598 95.2854 24.868 95.1534 25.168C95.0334 25.456 94.9734 25.744 94.9734 26.032H100.085ZM109.175 18.256H117.185V19.876H110.903V23.872H116.753V25.492H110.903V31H109.175V18.256ZM119.223 22.468H120.843V31H119.223V22.468ZM118.845 19.408C118.845 19.084 118.959 18.808 119.187 18.58C119.427 18.34 119.709 18.22 120.033 18.22C120.357 18.22 120.633 18.34 120.861 18.58C121.101 18.808 121.221 19.084 121.221 19.408C121.221 19.732 121.101 20.014 120.861 20.254C120.633 20.482 120.357 20.596 120.033 20.596C119.709 20.596 119.427 20.482 119.187 20.254C118.959 20.014 118.845 19.732 118.845 19.408ZM123.547 17.392H125.167V31H123.547V17.392ZM128.969 27.328C128.969 27.7 129.047 28.042 129.203 28.354C129.371 28.654 129.587 28.912 129.851 29.128C130.115 29.344 130.421 29.512 130.769 29.632C131.117 29.752 131.477 29.812 131.849 29.812C132.353 29.812 132.791 29.698 133.163 29.47C133.535 29.23 133.877 28.918 134.189 28.534L135.413 29.47C134.513 30.634 133.253 31.216 131.633 31.216C130.961 31.216 130.349 31.102 129.797 30.874C129.257 30.646 128.795 30.334 128.411 29.938C128.039 29.53 127.751 29.056 127.547 28.516C127.343 27.964 127.241 27.37 127.241 26.734C127.241 26.098 127.349 25.51 127.565 24.97C127.793 24.418 128.099 23.944 128.483 23.548C128.879 23.14 129.347 22.822 129.887 22.594C130.427 22.366 131.015 22.252 131.651 22.252C132.407 22.252 133.043 22.384 133.559 22.648C134.087 22.912 134.519 23.26 134.855 23.692C135.191 24.112 135.431 24.592 135.575 25.132C135.731 25.66 135.809 26.2 135.809 26.752V27.328H128.969ZM134.081 26.032C134.069 25.672 134.009 25.342 133.901 25.042C133.805 24.742 133.655 24.484 133.451 24.268C133.247 24.04 132.989 23.866 132.677 23.746C132.377 23.614 132.023 23.548 131.615 23.548C131.219 23.548 130.853 23.626 130.517 23.782C130.193 23.926 129.917 24.118 129.689 24.358C129.461 24.598 129.281 24.868 129.149 25.168C129.029 25.456 128.969 25.744 128.969 26.032H134.081Z" fill="#090446"/>
<path fill-rule="evenodd" clip-rule="evenodd" d="M25.7379 15.7617H19.0849C17.0049 15.7537 15.2999 17.4117 15.2509 19.4907V30.2037C15.2049 32.3167 16.8799 34.0677 18.9929 34.1147C19.0239 34.1147 19.0539 34.1157 19.0849 34.1147H27.0739C29.1679 34.0297 30.8179 32.2997 30.8029 30.2037V21.0377L25.7379 15.7617Z" stroke="#090446" stroke-width="1.5" stroke-linecap="round" stroke-linejoin="round"/>
<path d="M25.4756 15.75V18.659C25.4756 20.079 26.6236 21.23 28.0436 21.234H30.7986" stroke="#090446" stroke-width="1.5" stroke-linecap="round" stroke-linejoin="round"/>
<path d="M25.2887 28.3584H19.8887" stroke="#090446" stroke-width="1.5" stroke-linecap="round" stroke-linejoin="round"/>
<path d="M23.2437 24.606H19.8877" stroke="#090446" stroke-width="1.5" stroke-linecap="round" stroke-linejoin="round"/>
</svg>
