<svg width="45" height="45" viewBox="0 0 45 45" fill="none" xmlns="http://www.w3.org/2000/svg">
<rect width="45" height="45" fill="#FFF1F6"/>
<path d="M28.8691 20.7129C30.4966 20.4842 31.7496 19.0889 31.7531 17.3984C31.7531 15.7324 30.5386 14.3511 28.9461 14.0897" stroke="#C2095A" stroke-width="1.75" stroke-linecap="round" stroke-linejoin="round"/>
<path d="M31.0176 24.6252C32.5937 24.8609 33.6939 25.4127 33.6939 26.5502C33.6939 27.3331 33.1759 27.8417 32.3382 28.1614" stroke="#C2095A" stroke-width="1.75" stroke-linecap="round" stroke-linejoin="round"/>
<path fill-rule="evenodd" clip-rule="evenodd" d="M21.8682 25.1078C18.1185 25.1078 14.916 25.676 14.916 27.9451C14.916 30.2131 18.0987 30.7976 21.8682 30.7976C25.6178 30.7976 28.8192 30.2353 28.8192 27.965C28.8192 25.6946 25.6377 25.1078 21.8682 25.1078Z" stroke="#C2095A" stroke-width="1.75" stroke-linecap="round" stroke-linejoin="round"/>
<path fill-rule="evenodd" clip-rule="evenodd" d="M21.8686 21.8691C24.3291 21.8691 26.3241 19.8753 26.3241 17.4136C26.3241 14.9531 24.3291 12.9581 21.8686 12.9581C19.4081 12.9581 17.4131 14.9531 17.4131 17.4136C17.4038 19.866 19.3836 21.861 21.836 21.8691H21.8686Z" stroke="#C2095A" stroke-width="1.75" stroke-linecap="round" stroke-linejoin="round"/>
<path d="M14.8664 20.7129C13.2378 20.4842 11.9859 19.0889 11.9824 17.3984C11.9824 15.7324 13.1969 14.3511 14.7894 14.0897" stroke="#C2095A" stroke-width="1.75" stroke-linecap="round" stroke-linejoin="round"/>
<path d="M12.7183 24.6252C11.1422 24.8609 10.042 25.4127 10.042 26.5502C10.042 27.3331 10.56 27.8417 11.3977 28.1614" stroke="#C2095A" stroke-width="1.75" stroke-linecap="round" stroke-linejoin="round"/>
</svg>
