<svg width="45" height="45" viewBox="0 0 45 45" fill="none" xmlns="http://www.w3.org/2000/svg">
<rect width="45" height="45" fill="#FFF1F6"/>
<path fill-rule="evenodd" clip-rule="evenodd" d="M19.5219 25.7405C15.0372 25.7405 11.207 26.4183 11.207 29.1343C11.207 31.8503 15.0139 32.5526 19.5219 32.5526C24.0077 32.5526 27.8367 31.8736 27.8367 29.1588C27.8367 26.444 24.031 25.7405 19.5219 25.7405Z" stroke="#C2095A" stroke-width="1.75" stroke-linecap="round" stroke-linejoin="round"/>
<path fill-rule="evenodd" clip-rule="evenodd" d="M19.5216 21.8668C22.4651 21.8668 24.8509 19.481 24.8509 16.5375C24.8509 13.594 22.4651 11.2081 19.5216 11.2081C16.5792 11.2081 14.1934 13.594 14.1934 16.5375C14.1829 19.4705 16.5512 21.8563 19.4854 21.8668H19.5216Z" stroke="#C2095A" stroke-width="1.75" stroke-linecap="round" stroke-linejoin="round"/>
<path d="M30.4036 18.1139V22.7922" stroke="#C2095A" stroke-width="1.75" stroke-linecap="round" stroke-linejoin="round"/>
<path d="M32.7902 20.4528H28.0186" stroke="#C2095A" stroke-width="1.75" stroke-linecap="round" stroke-linejoin="round"/>
</svg>
