<svg width="50" height="50" viewBox="0 0 50 50" fill="none" xmlns="http://www.w3.org/2000/svg">
<circle cx="25" cy="25" r="25" fill="#090446"/>
<path d="M33.4354 16.582C32.9352 16.0686 32.1949 15.8773 31.5046 16.0787L15.408 20.7595C14.6797 20.9619 14.1635 21.5427 14.0244 22.2806C13.8824 23.0315 14.3786 23.9848 15.0268 24.3834L20.0599 27.4768C20.5761 27.7939 21.2424 27.7144 21.6696 27.2835L27.4329 21.4843C27.723 21.1823 28.2032 21.1823 28.4934 21.4843C28.7835 21.7762 28.7835 22.2493 28.4934 22.5513L22.72 28.3516C22.2918 28.7814 22.2118 29.4508 22.5269 29.9702L25.6022 35.0538C25.9623 35.6577 26.5826 36 27.2628 36C27.3429 36 27.4329 36 27.513 35.9899C28.2933 35.8893 28.9135 35.3558 29.1436 34.6008L33.9156 18.5248C34.1257 17.8403 33.9356 17.0954 33.4354 16.582" fill="white"/>
</svg>
