<?xml version="1.0" encoding="utf-8"?>
<!-- Generator: Adobe Illustrator 25.2.0, SVG Export Plug-In . SVG Version: 6.00 Build 0)  -->
<svg version="1.1" id="Layer_1" xmlns="http://www.w3.org/2000/svg" xmlns:xlink="http://www.w3.org/1999/xlink" x="0px" y="0px"
	 viewBox="0 0 20 16" style="enable-background:new 0 0 20 16;" xml:space="preserve">
<style type="text/css">
	.st0{fill-rule:evenodd;clip-rule:evenodd;fill:#C2095A;}
</style>
<path class="st0" d="M6.1,8c0,2.1,1.7,3.9,3.9,3.9c2.1,0,3.9-1.7,3.9-3.9c0-2.1-1.7-3.9-3.9-3.9C7.8,4.1,6.1,5.9,6.1,8z M15.7,2
	c1.7,1.3,3.2,3.2,4.2,5.7c0.1,0.2,0.1,0.4,0,0.6C17.9,13.1,14.1,16,10,16h0c-4.1,0-7.8-2.9-9.9-7.7C0,8.1,0,7.9,0.1,7.7
	C2.1,2.9,5.9,0,10,0h0C12.1,0,14,0.7,15.7,2z M10,10.4c1.3,0,2.4-1.1,2.4-2.4c0-1.3-1.1-2.4-2.4-2.4c-0.1,0-0.2,0-0.3,0
	c0,1.1-0.9,1.9-2,1.9h0c0,0.2,0,0.3,0,0.5C7.6,9.3,8.7,10.4,10,10.4z"/>
</svg>
