<?xml version="1.0"?>
<svg xmlns="http://www.w3.org/2000/svg" viewBox="0 0 64 64" width="512" height="512"><g id="Web"><path d="M64,32A32,32,0,1,0,32,64,32.042,32.042,0,0,0,64,32ZM47.5327,50.3949a47.7231,47.7231,0,0,0,3.4524-17.4071h10.99a29.8876,29.8876,0,0,1-8.3926,19.8179A45.7411,45.7411,0,0,0,47.5327,50.3949Zm-37.115,2.4108A29.8876,29.8876,0,0,1,2.0251,32.9878h10.99a47.7231,47.7231,0,0,0,3.4524,17.4071A45.7411,45.7411,0,0,0,10.4177,52.8057Zm0-41.6114a45.7411,45.7411,0,0,0,6.05,2.4108,47.71,47.71,0,0,0-3.452,17.3827H2.0257A29.8876,29.8876,0,0,1,10.4177,11.1943Zm43.1646,0a29.8876,29.8876,0,0,1,8.392,19.7935h-10.99a47.71,47.71,0,0,0-3.452-17.3827A45.7411,45.7411,0,0,0,53.5823,11.1943ZM48.9855,30.9878H33V15.9721A51.3471,51.3471,0,0,0,45.66,14.166,46.1635,46.1635,0,0,1,48.9855,30.9878ZM33,13.9722V2.0562c4.706.4843,8.9012,4.3632,11.8151,10.2648A49.3873,49.3873,0,0,1,33,13.9722ZM31,2.0562v11.916A49.3873,49.3873,0,0,1,19.1849,12.321C22.0988,6.4194,26.294,2.5405,31,2.0562Zm0,13.9159V30.9878H15.0145A46.1635,46.1635,0,0,1,18.34,14.166,51.3471,51.3471,0,0,0,31,15.9721ZM15.0142,32.9878H31v15.04A51.3471,51.3471,0,0,0,18.34,49.834,46.1742,46.1742,0,0,1,15.0142,32.9878ZM31,50.0278v11.916c-4.706-.4843-8.9012-4.3632-11.8151-10.2648A49.3873,49.3873,0,0,1,31,50.0278Zm2,11.916V50.0278A49.3873,49.3873,0,0,1,44.8151,51.679C41.9012,57.5806,37.706,61.46,33,61.9438Zm0-13.9159v-15.04H48.9858A46.1742,46.1742,0,0,1,45.66,49.834,51.3471,51.3471,0,0,0,33,48.0279ZM52.0481,9.7051a44.0262,44.0262,0,0,1-5.3389,2.0658,25.1733,25.1733,0,0,0-6.4861-8.6157A29.98,29.98,0,0,1,52.0481,9.7051ZM17.2908,11.7709a44.0262,44.0262,0,0,1-5.3389-2.0658,29.98,29.98,0,0,1,11.825-6.55A25.1733,25.1733,0,0,0,17.2908,11.7709Zm-5.3389,42.524a44.0262,44.0262,0,0,1,5.3389-2.0658,25.1733,25.1733,0,0,0,6.4861,8.6157A29.98,29.98,0,0,1,11.9519,54.2949Zm34.7573-2.0658a44.0262,44.0262,0,0,1,5.3389,2.0658,29.98,29.98,0,0,1-11.825,6.55A25.1733,25.1733,0,0,0,46.7092,52.2291Z"/></g></svg>
