<svg width="20" height="26" viewBox="0 0 20 26" fill="none" xmlns="http://www.w3.org/2000/svg">
<path d="M9.75 18.4167C8.31393 18.415 6.93716 17.8438 5.92171 16.8283C4.90625 15.8128 4.33503 14.4361 4.33333 13V5.41667C4.33333 3.98008 4.90402 2.60233 5.91984 1.5865C6.93566 0.570683 8.31341 0 9.75 0C11.1866 0 12.5643 0.570683 13.5802 1.5865C14.596 2.60233 15.1667 3.98008 15.1667 5.41667V13C15.165 14.4361 14.5937 15.8128 13.5783 16.8283C12.5628 17.8438 11.1861 18.415 9.75 18.4167ZM19.5 13C19.5 12.7127 19.3859 12.4371 19.1827 12.234C18.9795 12.0308 18.704 11.9167 18.4167 11.9167C18.1293 11.9167 17.8538 12.0308 17.6506 12.234C17.4475 12.4371 17.3333 12.7127 17.3333 13C17.3333 15.0112 16.5344 16.9401 15.1122 18.3622C13.6901 19.7844 11.7612 20.5833 9.75 20.5833C7.73878 20.5833 5.80993 19.7844 4.38777 18.3622C2.96562 16.9401 2.16667 15.0112 2.16667 13C2.16667 12.7127 2.05253 12.4371 1.84937 12.234C1.6462 12.0308 1.37065 11.9167 1.08333 11.9167C0.796015 11.9167 0.520466 12.0308 0.317301 12.234C0.114137 12.4371 0 12.7127 0 13C3.85323e-08 15.5859 1.02723 18.0658 2.85571 19.8943C4.68419 21.7228 7.16414 22.75 9.75 22.75C12.3359 22.75 14.8158 21.7228 16.6443 19.8943C18.4728 18.0658 19.5 15.5859 19.5 13ZM10.8333 24.9167V21.6667C10.8333 21.3793 10.7192 21.1038 10.516 20.9006C10.3129 20.6975 10.0373 20.5833 9.75 20.5833C9.46268 20.5833 9.18713 20.6975 8.98397 20.9006C8.7808 21.1038 8.66667 21.3793 8.66667 21.6667V24.9167C8.66667 25.204 8.7808 25.4795 8.98397 25.6827C9.18713 25.8859 9.46268 26 9.75 26C10.0373 26 10.3129 25.8859 10.516 25.6827C10.7192 25.4795 10.8333 25.204 10.8333 24.9167Z" fill="#D2D2D2"/>
</svg>
