<svg width="26" height="26" viewBox="0 0 26 26" fill="none" xmlns="http://www.w3.org/2000/svg">
<g clip-path="url(#clip0_1_447)">
<path d="M12.7522 22.3746C12.9767 22.5991 13.3169 22.6608 13.606 22.5294L17.0753 20.9524L14.1743 18.0515L12.5973 21.5208C12.466 21.8098 12.5277 22.15 12.7522 22.3746Z" fill="#D2D2D2"/>
<path d="M25.3199 11.9613L23.1655 9.80688C22.868 9.5094 22.3857 9.5094 22.0883 9.80688L15.0862 16.8088L18.3179 20.0406L25.3199 13.0385C25.6173 12.7411 25.6173 12.2587 25.3199 11.9613Z" fill="#D2D2D2"/>
<path d="M6.29688 5.17969H14.4219C14.8425 5.17969 15.1836 4.83864 15.1836 4.41797V2.38672C15.1836 1.96605 14.8425 1.625 14.4219 1.625H13.1523V0.761719C13.1523 0.341047 12.8113 0 12.3906 0H8.32812C7.90745 0 7.56641 0.341047 7.56641 0.761719V1.625H6.29688C5.8762 1.625 5.53516 1.96605 5.53516 2.38672V4.41797C5.53516 4.83864 5.8762 5.17969 6.29688 5.17969Z" fill="#D2D2D2"/>
<path d="M18.1863 22.1208L14.2363 23.9163C13.9373 24.0522 13.6192 24.1211 13.2909 24.1211C12.6804 24.1211 12.1065 23.8834 11.6749 23.4518C11.0051 22.782 10.8184 21.7527 11.2104 20.8903L13.0058 16.9405C13.1198 16.6898 13.276 16.4644 13.4703 16.2702L20.2617 9.47878V4.16406C20.2617 3.74339 19.9207 3.40234 19.5 3.40234H16.707V4.41797C16.707 5.678 15.6819 6.70312 14.4219 6.70312H6.29688C5.03684 6.70312 4.01172 5.678 4.01172 4.41797V3.40234H1.21875C0.798078 3.40234 0.457031 3.74339 0.457031 4.16406V25.2383C0.457031 25.659 0.798078 26 1.21875 26H19.5C19.9207 26 20.2617 25.659 20.2617 25.2383V20.2512L18.8565 21.6564C18.6621 21.8508 18.4366 22.007 18.1863 22.1208ZM5.50438 10.1255C5.80181 9.828 6.28413 9.828 6.58161 10.1255L7.3125 10.8564L9.31298 8.85595C9.6104 8.55847 10.0927 8.55847 10.3902 8.85595C10.6877 9.15342 10.6877 9.63569 10.3902 9.93317L7.85114 12.4722C7.7024 12.621 7.50745 12.6953 7.3125 12.6953C7.11755 12.6953 6.9226 12.621 6.77391 12.4722L5.50438 11.2026C5.20691 10.9052 5.20691 10.4229 5.50438 10.1255ZM5.50438 15.0766C5.80181 14.7792 6.28413 14.7792 6.58161 15.0766L7.3125 15.8075L9.31298 13.8071C9.6104 13.5096 10.0927 13.5096 10.3902 13.8071C10.6877 14.1046 10.6877 14.5869 10.3902 14.8843L7.85114 17.4234C7.7024 17.5721 7.50745 17.6465 7.31255 17.6465C7.11765 17.6465 6.92265 17.5722 6.77397 17.4234L5.50443 16.1539C5.20691 15.8564 5.20691 15.3741 5.50438 15.0766ZM3.50391 22.3438C3.08323 22.3438 2.74219 22.0027 2.74219 21.582C2.74219 21.1614 3.08323 20.8203 3.50391 20.8203C3.92458 20.8203 4.26562 21.1614 4.26562 21.582C4.26562 22.0027 3.92458 22.3438 3.50391 22.3438ZM3.50391 17.3926C3.08323 17.3926 2.74219 17.0515 2.74219 16.6309C2.74219 16.2102 3.08323 15.8691 3.50391 15.8691C3.92458 15.8691 4.26562 16.2102 4.26562 16.6309C4.26562 17.0515 3.92458 17.3926 3.50391 17.3926ZM3.50391 12.4414C3.08323 12.4414 2.74219 12.1004 2.74219 11.6797C2.74219 11.259 3.08323 10.918 3.50391 10.918C3.92458 10.918 4.26562 11.259 4.26562 11.6797C4.26562 12.1004 3.92458 12.4414 3.50391 12.4414ZM7.3125 22.5977C7.11755 22.5977 6.9226 22.5233 6.77391 22.3745L5.50438 21.105C5.20691 20.8075 5.20691 20.3252 5.50438 20.0278C5.80181 19.7303 6.28413 19.7303 6.58161 20.0278L7.3125 20.7587L9.31298 18.7583C9.6104 18.4608 10.0927 18.4608 10.3902 18.7583C10.6877 19.0558 10.6877 19.538 10.3902 19.8355L7.85114 22.3746C7.7024 22.5233 7.50745 22.5977 7.3125 22.5977Z" fill="#D2D2D2"/>
</g>
<defs>
<clipPath id="clip0_1_447">
<rect width="26" height="26" fill="white"/>
</clipPath>
</defs>
</svg>
