<svg width="30" height="30" viewBox="0 0 30 30" fill="none" xmlns="http://www.w3.org/2000/svg">
<path d="M6.99991 3.00061V12.9996C9.04201 12.9996 10.7811 14.2398 11.5545 15.9993H18.4452C19.2186 14.2398 20.958 12.9996 23.0001 12.9996V3.00061H6.99991ZM12 11.9994H9.99991V4.99951H12V11.9994ZM15.9999 11.9994H13.9998V6.99961H15.9999V11.9994ZM20.0001 11.9994H18V8.99941H20.0001V11.9994Z" fill="#090446"/>
<path d="M15 23.9994C16.6569 23.9994 18 22.6562 18 20.9994C18 19.3425 16.6569 17.9994 15 17.9994C13.3431 17.9994 12 19.3425 12 20.9994C12 22.6562 13.3431 23.9994 15 23.9994Z" fill="#090446"/>
<path d="M11.0001 26.9994C11.0001 25.8948 11.8956 24.9993 13.0002 24.9993H17.0001C18.1047 24.9993 18.9999 25.8948 18.9999 26.9994H11.0001Z" fill="#090446"/>
<path d="M23.0001 20.9994C24.6569 20.9994 26.0001 19.6562 26.0001 17.9994C26.0001 16.3425 24.6569 14.9994 23.0001 14.9994C21.3432 14.9994 20.0001 16.3425 20.0001 17.9994C20.0001 19.6562 21.3432 20.9994 23.0001 20.9994Z" fill="#090446"/>
<path d="M6.99991 20.9994C8.65676 20.9994 9.99991 19.6562 9.99991 17.9994C9.99991 16.3425 8.65676 14.9994 6.99991 14.9994C5.34305 14.9994 3.99991 16.3425 3.99991 17.9994C3.99991 19.6562 5.34305 20.9994 6.99991 20.9994Z" fill="#090446"/>
<path d="M10.9551 23.5806C10.7616 22.6773 9.9609 21.9993 9 21.9993H5.0001C3.8955 21.9993 3 22.8948 3 23.9994V26.9994H9C9 25.5435 9.789 24.2808 10.9551 23.5806Z" fill="#090446"/>
<path d="M19.0449 23.5806C19.2384 22.6773 20.0388 21.9993 21 21.9993H24.9999C26.1045 21.9993 27 22.8948 27 23.9994V26.9994H21C21 25.5435 20.211 24.2808 19.0449 23.5806Z" fill="#090446"/>
</svg>
