<svg width="27" height="22" viewBox="0 0 27 22" fill="none" xmlns="http://www.w3.org/2000/svg">
<path fill-rule="evenodd" clip-rule="evenodd" d="M13.6444 0.0058117C11.505 -0.065434 9.34353 0.518245 7.47743 1.76387C5.38153 3.16437 3.91682 5.2325 3.24215 7.54448C3.05585 7.52173 2.83274 7.53177 2.56783 7.60669C1.57875 7.88733 0.834852 8.69779 0.500365 9.41158C0.0665355 10.3418 -0.116429 11.572 0.0765701 12.8421C0.268231 14.1081 0.803076 15.1517 1.47205 15.7996C2.14303 16.4479 2.90064 16.6586 3.65324 16.5004C4.77377 16.2612 5.32935 16.0823 5.17248 15.0383L4.41286 9.97787C4.56605 7.23909 5.98394 4.66087 8.35546 3.0754C11.5297 0.955086 15.6914 1.09089 18.7192 3.41524C20.8255 5.03014 22.0483 7.44982 22.1895 9.98991L21.6583 13.5298C20.4736 16.772 17.5365 19.0177 14.1377 19.3365H11.8746C11.2906 19.3365 10.8203 19.8068 10.8203 20.3901V20.946C10.8203 21.5297 11.2906 22 11.8746 22H14.7281C15.3118 22 15.7801 21.5297 15.7801 20.946V20.6554C18.3429 20.0299 20.5799 18.4548 22.0366 16.2582L22.9508 16.5007C23.6947 16.6937 24.4613 16.4479 25.132 15.8C25.801 15.1517 26.3355 14.1085 26.5275 12.8424C26.7211 11.5724 26.5328 10.3441 26.104 9.41192C25.6735 8.4797 25.0323 7.88766 24.2921 7.67526C23.982 7.58596 23.6455 7.55317 23.3569 7.54448C22.7468 5.45393 21.4908 3.55271 19.6805 2.16459C17.9007 0.79888 15.7837 0.076054 13.6444 0.0058117Z" fill="#D2D2D2"/>
<path fill-rule="evenodd" clip-rule="evenodd" d="M16.9842 9.10989C17.7385 9.10989 18.3499 9.72133 18.3516 10.4776C18.3499 11.2319 17.7385 11.845 16.9842 11.845C16.2279 11.845 15.6148 11.2319 15.6148 10.4776C15.6148 9.72166 16.2283 9.10989 16.9842 9.10989ZM13.3015 9.10989C14.0575 9.10989 14.6689 9.72133 14.6689 10.4776C14.6689 11.2319 14.0575 11.845 13.3015 11.845C12.5449 11.845 11.9335 11.2319 11.9335 10.4776C11.9335 9.72166 12.5449 9.10989 13.3015 9.10989ZM9.62015 9.10989C10.3744 9.10989 10.9875 9.72133 10.9875 10.4776C10.9875 11.2319 10.3744 11.845 9.62015 11.845C8.86421 11.845 8.25243 11.2319 8.25243 10.4776C8.25243 9.72166 8.86421 9.10989 9.62015 9.10989ZM13.3015 3.23563C9.29102 3.23563 6.0592 6.36107 6.0592 10.4776C6.0592 12.4548 6.80678 14.2021 8.02465 15.4842L7.59249 17.4216C7.45 18.0591 7.89219 18.4879 8.46517 18.1688L10.357 17.1135C11.2561 17.5038 12.2506 17.7196 13.3015 17.7196C17.3134 17.7196 20.5432 14.5961 20.5432 10.4776C20.5432 6.36107 17.3134 3.23563 13.3015 3.23563Z" fill="#D2D2D2"/>
</svg>
