<svg width="24" height="24" viewBox="0 0 24 24" fill="none" xmlns="http://www.w3.org/2000/svg">
<path d="M10.9091 3.27273V7.63636C10.9091 8.50435 10.5643 9.33678 9.95053 9.95053C9.33678 10.5643 8.50435 10.9091 7.63636 10.9091H3.27273C2.40475 10.9091 1.57232 10.5643 0.95856 9.95053C0.344804 9.33678 0 8.50435 0 7.63636V3.27273C0 2.40475 0.344804 1.57232 0.95856 0.95856C1.57232 0.344804 2.40475 0 3.27273 0H7.63636C8.50435 0 9.33678 0.344804 9.95053 0.95856C10.5643 1.57232 10.9091 2.40475 10.9091 3.27273ZM20.7273 0H16.3636C15.4957 0 14.6632 0.344804 14.0495 0.95856C13.4357 1.57232 13.0909 2.40475 13.0909 3.27273V7.63636C13.0909 8.50435 13.4357 9.33678 14.0495 9.95053C14.6632 10.5643 15.4957 10.9091 16.3636 10.9091H20.7273C21.5953 10.9091 22.4277 10.5643 23.0414 9.95053C23.6552 9.33678 24 8.50435 24 7.63636V3.27273C24 2.40475 23.6552 1.57232 23.0414 0.95856C22.4277 0.344804 21.5953 0 20.7273 0ZM7.63636 13.0909H3.27273C2.40475 13.0909 1.57232 13.4357 0.95856 14.0495C0.344804 14.6632 0 15.4957 0 16.3636V20.7273C0 21.5953 0.344804 22.4277 0.95856 23.0414C1.57232 23.6552 2.40475 24 3.27273 24H7.63636C8.50435 24 9.33678 23.6552 9.95053 23.0414C10.5643 22.4277 10.9091 21.5953 10.9091 20.7273V16.3636C10.9091 15.4957 10.5643 14.6632 9.95053 14.0495C9.33678 13.4357 8.50435 13.0909 7.63636 13.0909ZM20.7273 13.0909H16.3636C15.4957 13.0909 14.6632 13.4357 14.0495 14.0495C13.4357 14.6632 13.0909 15.4957 13.0909 16.3636V20.7273C13.0909 21.5953 13.4357 22.4277 14.0495 23.0414C14.6632 23.6552 15.4957 24 16.3636 24H20.7273C21.5953 24 22.4277 23.6552 23.0414 23.0414C23.6552 22.4277 24 21.5953 24 20.7273V16.3636C24 15.4957 23.6552 14.6632 23.0414 14.0495C22.4277 13.4357 21.5953 13.0909 20.7273 13.0909Z" fill="white"/>
</svg>
