<svg width="27" height="19" viewBox="0 0 27 19" fill="none" xmlns="http://www.w3.org/2000/svg">
<path d="M5.98803 5.87448H1.06595C0.606503 5.87448 0.245605 6.23538 0.245605 6.69483V16.539C0.245605 16.9984 0.606503 17.3593 1.06595 17.3593H5.98803C6.44748 17.3593 6.80837 16.9984 6.80837 16.539V6.69483C6.80837 6.23538 6.44748 5.87448 5.98803 5.87448ZM3.52699 10.7966C3.06754 10.7966 2.70664 10.4357 2.70664 9.97621C2.70664 9.51676 3.06754 9.15587 3.52699 9.15587C3.98644 9.15587 4.34734 9.51676 4.34734 9.97621C4.34734 10.4357 3.98644 10.7966 3.52699 10.7966Z" fill="#D2D2D2"/>
<path d="M24.6755 12.3388C24.7904 12.6177 24.856 12.9295 24.856 13.2576C24.856 14.3897 24.0849 15.3413 23.0349 15.6202C23.1497 15.899 23.2153 16.2108 23.2153 16.539C23.2153 17.9008 22.1161 19 20.7543 19H16.5048C14.815 19 13.1743 18.311 11.9766 17.1132C11.0742 16.2272 9.84369 15.7186 8.59681 15.7186H8.4491V7.51517H9.28585C10.7788 7.4823 12.2719 7.07213 13.5845 6.33392C16.6526 4.57838 16.6526 3.67589 16.6526 1.90406C16.6526 1.69077 16.7346 1.41185 16.8987 1.26418C17.0463 1.10017 17.2596 0.952454 17.4729 0.952454C19.212 0.952454 20.623 1.7728 21.2465 3.16733C21.8208 4.44713 21.6075 6.00579 20.7215 7.51522H24.0357C25.3976 7.51522 26.4968 8.61443 26.4968 9.97626C26.4967 11.1083 25.7256 12.0599 24.6755 12.3388Z" fill="#D2D2D2"/>
</svg>
