<svg width="24" height="24" viewBox="0 0 24 24" fill="none" xmlns="http://www.w3.org/2000/svg">
<path d="M22.125 8.6745V19.875C22.1244 20.4716 21.8872 21.0435 21.4653 21.4653C21.0435 21.8872 20.4716 22.1244 19.875 22.125H16.125C15.7272 22.125 15.3456 21.967 15.0643 21.6857C14.783 21.4044 14.625 21.0228 14.625 20.625V16.5C14.625 16.3011 14.546 16.1103 14.4053 15.9697C14.2647 15.829 14.0739 15.75 13.875 15.75H10.125C9.92609 15.75 9.73532 15.829 9.59467 15.9697C9.45402 16.1103 9.375 16.3011 9.375 16.5V20.625C9.375 21.0228 9.21696 21.4044 8.93566 21.6857C8.65436 21.967 8.27282 22.125 7.875 22.125H4.125C3.52845 22.1244 2.9565 21.8872 2.53467 21.4653C2.11284 21.0435 1.8756 20.4716 1.875 19.875V8.6745C1.87556 8.41548 1.94287 8.16098 2.07043 7.93555C2.19799 7.71012 2.3815 7.52136 2.60325 7.3875L11.2282 2.2125C11.4614 2.07256 11.7282 1.99863 12.0002 1.99863C12.2721 1.99863 12.539 2.07256 12.7721 2.2125L21.3971 7.3875C21.6188 7.52141 21.8022 7.71018 21.9297 7.93561C22.0572 8.16104 22.1245 8.41552 22.125 8.6745Z" fill="#D2D2D2"/>
</svg>
