<svg width="40" height="40" viewBox="0 0 40 40" fill="none" xmlns="http://www.w3.org/2000/svg">
<ellipse opacity="0.02" cx="20" cy="20.1295" rx="20" ry="19.243" fill="#7166F9"/>
<path d="M32.2188 20.2347C32.2188 26.6708 26.7967 31.8857 20.1094 31.8857C13.422 31.8857 8 26.6708 8 20.2347C8 13.8024 13.422 8.58368 20.1094 8.58368C26.7967 8.58368 32.2188 13.8024 32.2188 20.2347ZM20.4343 12.436C17.7733 12.436 16.0762 13.5146 14.7435 15.4314C14.5708 15.6797 14.6286 16.0146 14.876 16.1952L16.5703 17.4312C16.8245 17.6167 17.1866 17.5725 17.384 17.3315C18.2563 16.2671 18.8544 15.6498 20.182 15.6498C21.1795 15.6498 22.4134 16.2675 22.4134 17.1982C22.4134 17.9017 21.8097 18.263 20.8248 18.7943C19.6762 19.4139 18.1562 20.1849 18.1562 22.1139V22.3018C18.1562 22.6132 18.4186 22.8656 18.7422 22.8656H21.4766C21.8001 22.8656 22.0625 22.6132 22.0625 22.3018V22.2392C22.0625 20.9021 26.1243 20.8464 26.1243 17.228C26.1243 14.5031 23.1866 12.436 20.4343 12.436ZM20.1094 24.0871C18.8708 24.0871 17.8633 25.0565 17.8633 26.2481C17.8633 27.4397 18.8708 28.4092 20.1094 28.4092C21.3479 28.4092 22.3555 27.4397 22.3555 26.2481C22.3555 25.0565 21.3479 24.0871 20.1094 24.0871Z" fill="#090446"/>
</svg>
