<svg width="26" height="26" viewBox="0 0 26 26" fill="none" xmlns="http://www.w3.org/2000/svg">
<path d="M11.4292 16.0334C11.3208 16.25 11.375 16.5209 11.5917 16.6292C11.7 16.7375 11.8083 16.7917 11.9708 16.7917C12.0792 16.7917 12.1333 16.7917 12.2417 16.7375L15.7083 14.7334L12.8917 12.6208L11.4292 16.0334Z" fill="#D2D2D2"/>
<path d="M16.5209 13.975L24.1042 4.98334C24.375 4.65834 24.5375 4.22501 24.4834 3.73751C24.375 2.97918 23.4 2.27501 23.4 2.27501C22.75 1.89584 21.9375 1.78751 21.125 2.60001L13.4875 11.7L16.5209 13.975Z" fill="#D2D2D2"/>
<path d="M4.33337 16.7917V2.70834C1.84171 2.70834 1.08337 5.09168 1.08337 5.95834V18.4167C1.95004 17.1708 4.33337 16.7917 4.33337 16.7917Z" fill="#D2D2D2"/>
<path d="M24.375 8.66669H22.3709L16.9542 15.1125C16.8459 15.275 16.6834 15.3834 16.5209 15.4917L12.7292 17.6584C12.1334 17.9834 11.375 17.9292 10.8334 17.4417C10.2917 16.9542 10.1292 16.25 10.4 15.6L12.025 11.8084C12.0792 11.7 14.625 8.66669 14.625 8.66669H5.41671V17.875H4.33337C2.60004 17.9834 1.19171 19.3917 1.08337 21.1792C1.08337 23.725 2.65421 24.9167 4.60421 24.9167H24.375C24.7 24.9167 24.9167 24.7 24.9167 24.375V9.20835C24.9167 8.88335 24.7 8.66669 24.375 8.66669Z" fill="#D2D2D2"/>
</svg>
