<svg width="24" height="24" viewBox="0 0 24 24" fill="none" xmlns="http://www.w3.org/2000/svg">
<g clip-path="url(#clip0_130_20)">
<path d="M12.1618 24C11.2369 24.023 9.42005 23.8791 8.82614 23.738C8.40838 23.6422 8.03242 23.4148 7.75364 23.0892C7.47055 22.7696 7.29265 22.3706 7.24411 21.9464V21.9338C7.213 21.6278 7.20344 21.32 7.21552 21.0127C7.20342 20.7579 7.21299 20.5026 7.24411 20.2495V20.2369C7.28726 19.8329 7.46799 19.4561 7.75599 19.1695C8.04566 18.8808 8.4248 18.699 8.8313 18.6539C9.42708 18.5911 11.2402 18.5564 12.1594 18.5569C13.0786 18.5574 14.5599 18.5911 15.1557 18.6539C15.5627 18.6997 15.942 18.8825 16.2315 19.1724C16.5193 19.459 16.7 19.8358 16.7433 20.2397V20.2523C16.773 20.5053 16.7879 20.7598 16.7879 21.0145C16.7895 21.3226 16.7748 21.6305 16.7438 21.937V21.9497C16.695 22.374 16.5169 22.7732 16.2338 23.093C15.9552 23.4185 15.5794 23.6459 15.1618 23.7417C14.5688 23.8716 13.0866 24.0038 12.1618 24Z" fill="#D2D2D2"/>
<path d="M12 17.8598C13.5908 17.8598 14.8804 16.5702 14.8804 14.9794C14.8804 13.3885 13.5908 12.0989 12 12.0989C10.4091 12.0989 9.11951 13.3885 9.11951 14.9794C9.11951 16.5702 10.4091 17.8598 12 17.8598Z" fill="#D2D2D2"/>
<path d="M19.4762 17.5383C20.9782 17.5383 22.1958 16.3206 22.1958 14.8186C22.1958 13.3166 20.9782 12.0989 19.4762 12.0989C17.9741 12.0989 16.7565 13.3166 16.7565 14.8186C16.7565 16.3206 17.9741 17.5383 19.4762 17.5383Z" fill="#D2D2D2"/>
<path d="M4.52389 17.5383C6.02593 17.5383 7.24357 16.3206 7.24357 14.8186C7.24357 13.3166 6.02593 12.0989 4.52389 12.0989C3.02184 12.0989 1.8042 13.3166 1.8042 14.8186C1.8042 16.3206 3.02184 17.5383 4.52389 17.5383Z" fill="#D2D2D2"/>
<path d="M16.1321 3.17344C15.8099 3.12284 15.5194 2.95071 15.3202 2.69245C15.1211 2.4342 15.0285 2.10945 15.0614 1.785C15.0715 1.69564 15.0918 1.60772 15.1219 1.52297C15.1578 1.40834 15.1584 1.28559 15.1237 1.17059C15.089 1.0556 15.0206 0.953662 14.9274 0.877973C14.5204 0.5267 14.0589 0.244091 13.561 0.0412538C13.4524 -0.00454582 13.3317 -0.0128174 13.2179 0.0177496C13.1042 0.0483165 13.0038 0.115974 12.9328 0.210004C12.8384 0.334595 12.7199 0.439018 12.5845 0.517123C12.449 0.595228 12.2993 0.645435 12.1441 0.664786C11.989 0.684137 11.8315 0.672242 11.681 0.6298C11.5305 0.587358 11.39 0.515229 11.2678 0.41766C11.1924 0.357247 11.125 0.287466 11.0672 0.210004C10.9962 0.115974 10.8959 0.0483165 10.7821 0.0177496C10.6684 -0.0128174 10.5476 -0.00454582 10.4391 0.0412538C9.97987 0.227993 9.55133 0.482715 9.16785 0.796879C9.07006 0.873605 8.99807 0.9784 8.96154 1.09721C8.92501 1.21602 8.92569 1.34315 8.96347 1.46157C9.19269 2.07094 8.88332 2.78297 8.25426 3.04266C8.14215 3.08945 8.02392 3.11991 7.90316 3.13313C7.78038 3.14771 7.66506 3.1997 7.57282 3.28204C7.48059 3.36438 7.4159 3.4731 7.38754 3.59344C7.27235 4.10482 7.26214 4.63425 7.35754 5.14969C7.38211 5.27385 7.44546 5.387 7.53846 5.47284C7.63146 5.55868 7.74932 5.61278 7.87504 5.62735C8.19792 5.66149 8.49534 5.81841 8.70577 6.06567C8.91621 6.31292 9.02358 6.6316 9.00566 6.95579C8.99764 7.08899 8.96672 7.21981 8.91426 7.3425C8.81441 7.57266 8.89176 7.85157 9.09754 8.02125C9.50244 8.36654 9.96014 8.64461 10.4532 8.84485C10.5143 8.8685 10.5789 8.88181 10.6444 8.88422C10.7329 8.88617 10.8204 8.8657 10.8988 8.82472C10.9773 8.78374 11.0441 8.72358 11.093 8.64985C11.1987 8.48925 11.3428 8.35752 11.5122 8.2666C11.6816 8.17567 11.871 8.1284 12.0633 8.12907C12.2494 8.12877 12.4328 8.17289 12.5984 8.25776C12.764 8.34263 12.9069 8.46581 13.0153 8.61704C13.086 8.71757 13.1895 8.79025 13.3081 8.82252C13.4266 8.85479 13.5527 8.84462 13.6646 8.79375C14.1145 8.5938 14.5328 8.3293 14.9063 8.0086C15.0012 7.9317 15.0704 7.82768 15.1047 7.71042C15.1389 7.59317 15.1366 7.46825 15.098 7.35235C14.8636 6.74766 15.1627 6.03188 15.7889 5.76563C15.8948 5.71938 16.0064 5.68784 16.1208 5.67188C16.2421 5.65424 16.3551 5.59985 16.4445 5.51604C16.5339 5.43222 16.5955 5.32302 16.621 5.20313C16.6749 4.95174 16.7041 4.69568 16.7082 4.4386C16.708 4.16747 16.6796 3.89711 16.6233 3.63188C16.5976 3.51458 16.537 3.40782 16.4494 3.32572C16.3617 3.24362 16.2513 3.19003 16.1325 3.17203L16.1321 3.17344ZM13.5694 4.43907C13.5696 4.7495 13.4777 5.05301 13.3054 5.31122C13.133 5.56943 12.888 5.77072 12.6013 5.88965C12.3145 6.00857 11.9989 6.03979 11.6944 5.97934C11.39 5.91889 11.1102 5.76949 10.8907 5.55005C10.6711 5.33061 10.5215 5.05097 10.4609 4.74652C10.4003 4.44206 10.4313 4.12647 10.55 3.83965C10.6688 3.55283 10.8699 3.30767 11.128 3.13518C11.3861 2.96269 11.6896 2.87063 12 2.87063C12.4156 2.87272 12.8136 3.03874 13.1074 3.3326C13.4013 3.62646 13.5673 4.02443 13.5694 4.44V4.43907Z" fill="#D2D2D2"/>
<path d="M24.0001 20.513C24.0001 20.2724 23.9862 20.032 23.9583 19.793V19.7813C23.9175 19.3998 23.7469 19.044 23.4751 18.7734C23.2021 18.4996 22.844 18.327 22.4597 18.2841C21.8972 18.2245 20.5004 18.1903 19.6304 18.1903C18.7604 18.1903 17.0583 18.2227 16.4897 18.2817C16.6111 18.368 16.7251 18.4643 16.8305 18.5695C17.2546 18.9934 17.5208 19.5498 17.5847 20.1459V20.1563V20.1623C17.6171 20.4503 17.6328 20.7398 17.6316 21.0295C17.6333 21.3609 17.6176 21.6921 17.5847 22.0219V22.0261V22.0336C17.54 22.4461 17.4065 22.8439 17.1933 23.1998C17.9494 23.2866 19.0051 23.3517 19.6308 23.3363C20.5041 23.3423 21.9033 23.2172 22.4649 23.0902C22.8593 22.9998 23.2141 22.785 23.4769 22.4775C23.7442 22.176 23.9123 21.7996 23.9583 21.3994V21.3877C23.9877 21.097 24.0016 20.8051 24.0001 20.513Z" fill="#D2D2D2"/>
<path d="M6.40455 22.0313V22.0284V22.0181C6.37119 21.6858 6.35991 21.3516 6.3708 21.0178C6.36081 20.7319 6.37209 20.4456 6.40455 20.1614V20.1478C6.44429 19.7771 6.56254 19.4191 6.75142 19.0977C6.94031 18.7762 7.19551 18.4987 7.50002 18.2836C6.93424 18.2241 5.54393 18.1922 4.67674 18.1922C3.80955 18.1922 2.09487 18.2245 1.53237 18.2859C1.14796 18.328 0.789365 18.4998 0.515646 18.773C0.243824 19.0437 0.0733582 19.3997 0.0328339 19.7813V19.793C0.00313315 20.0317 -0.00627553 20.2726 0.00470888 20.513C-0.00660689 20.8031 0.00247799 21.0937 0.0318964 21.3825V21.3947C0.0780477 21.7949 0.246105 22.1713 0.513303 22.4728C0.776342 22.7804 1.13132 22.9952 1.5258 23.0855C2.0883 23.2191 3.80252 23.3545 4.6758 23.333C5.38478 23.3286 6.09294 23.2841 6.7969 23.1998C6.58325 22.8432 6.4494 22.4445 6.40455 22.0313Z" fill="#D2D2D2"/>
<path d="M4.47421 11.5781C4.4414 11.5781 4.40905 11.5781 4.37577 11.573C4.25935 11.5602 4.14659 11.5246 4.04394 11.4682C3.9413 11.4118 3.85079 11.3357 3.7776 11.2442C3.70441 11.1528 3.64997 11.0478 3.6174 10.9353C3.58483 10.8228 3.57477 10.705 3.5878 10.5886C3.80015 8.65079 5.14499 6.94735 7.01296 6.24938C7.23425 6.16671 7.47932 6.17533 7.69425 6.27335C7.90918 6.37136 8.07638 6.55075 8.15905 6.77204C8.24172 6.99333 8.2331 7.2384 8.13509 7.45333C8.03707 7.66826 7.85769 7.83546 7.6364 7.91813C6.39233 8.38266 5.49843 9.50719 5.35827 10.7827C5.33482 11.0009 5.23162 11.2028 5.06846 11.3496C4.90531 11.4964 4.69369 11.5778 4.47421 11.5781Z" fill="#D2D2D2"/>
<path d="M19.5258 11.5781C19.3061 11.5777 19.0943 11.4961 18.9312 11.349C18.768 11.202 18.6649 10.9997 18.6418 10.7813C18.5012 9.50578 17.6077 8.38125 16.3637 7.91672C16.1424 7.83405 15.963 7.66685 15.865 7.45192C15.7669 7.23698 15.7583 6.99192 15.841 6.77063C15.9237 6.54934 16.0909 6.36995 16.3058 6.27193C16.5207 6.17392 16.7658 6.1653 16.9871 6.24797C18.8551 6.94594 20.1999 8.64938 20.4122 10.5872C20.4253 10.7036 20.4152 10.8214 20.3826 10.9339C20.3501 11.0464 20.2956 11.1514 20.2224 11.2428C20.1493 11.3343 20.0587 11.4104 19.9561 11.4668C19.8535 11.5232 19.7407 11.5588 19.6243 11.5716C19.5938 11.5739 19.5587 11.5781 19.5258 11.5781Z" fill="#D2D2D2"/>
</g>
<defs>
<clipPath id="clip0_130_20">
<rect width="24" height="24" fill="white"/>
</clipPath>
</defs>
</svg>
