<svg width="26" height="33" viewBox="0 0 26 33" fill="none" xmlns="http://www.w3.org/2000/svg">
<path d="M21.4709 10.4413C22.2606 9.75479 22.7095 8.75869 22.7095 7.71094V2.17809H24.774C25.3418 2.17809 25.8063 1.71357 25.8063 1.14581C25.8063 0.578048 25.3418 0.113525 24.7741 0.113525H22.7096H3.09676H1.03228C0.464523 0.113525 0 0.578048 0 1.14581C0 1.71357 0.464523 2.17809 1.03228 2.17809H3.09676V8.2168C3.09676 9.26972 3.55097 10.271 4.35099 10.9574L8.93416 14.9316C9.27998 15.231 9.47613 15.6542 9.47613 16.1135C9.47613 16.5729 9.28513 16.9961 8.93416 17.2955L4.35099 21.2645C3.55097 21.9561 3.09676 22.9573 3.09676 24.0102V30.049H1.03228C0.464523 30.049 0 30.5135 0 31.0812C0 31.649 0.464523 32.1135 1.03228 32.1135H3.09676H22.7095H24.774C25.3418 32.1135 25.8063 31.649 25.8063 31.0812C25.8063 30.5135 25.3418 30.049 24.774 30.049H22.7095V24.5161C22.7095 23.4684 22.2553 22.4723 21.4709 21.7858L16.3303 17.2903C15.9844 16.9909 15.7987 16.5729 15.7987 16.1135C15.7987 15.6542 15.9897 15.2361 16.3303 14.9367L21.4709 10.4413ZM14.9728 18.8438L20.1134 23.3393C20.4541 23.6386 20.645 24.067 20.645 24.516V30.0489H5.16124V24.0102C5.16124 23.556 5.3574 23.1276 5.69806 22.8282L10.2812 18.8592C11.0761 18.1676 11.5355 17.1715 11.5355 16.1186C11.5355 15.0657 11.0812 14.0644 10.2812 13.378L5.69806 9.40382C5.3574 9.10442 5.16124 8.67093 5.16124 8.21672V2.17801H20.6451V7.71085C20.6451 8.1599 20.4489 8.58824 20.1083 8.88763L14.9676 13.3831C14.1831 14.0696 13.729 15.0657 13.729 16.1134C13.729 17.1612 14.1832 18.1573 14.9728 18.8438Z" fill="#0A0446"/>
<path d="M19.6127 7.71092V6.88511C19.6127 6.56509 19.3547 6.30704 19.0398 6.30704H6.7664C6.45153 6.30704 6.19348 6.56509 6.19348 6.87995V8.2167C6.19348 8.52126 6.32766 8.81025 6.55477 9.00641L11.0657 12.9187C11.6232 13.4038 12.0825 14.0077 12.3251 14.7045C12.9135 16.3767 12.3974 18.1522 11.138 19.2412L6.55485 23.2154C6.32775 23.4167 6.19356 23.7005 6.19356 24.0051V28.5521C6.19356 28.8102 6.40004 29.0167 6.65293 29.0167H19.1535C19.4064 29.0167 19.6129 28.8102 19.6129 28.5573V24.516C19.6129 24.2115 19.4839 23.9276 19.2568 23.7263L14.2039 19.3031C13.6516 18.818 13.1975 18.2193 12.9497 17.5276C12.3561 15.8605 12.8671 14.0902 14.1162 12.9909L19.2568 8.49539C19.4837 8.29931 19.6127 8.01023 19.6127 7.71092Z" fill="#0A0446"/>
</svg>
