<svg width="26" height="26" viewBox="0 0 26 26" fill="none" xmlns="http://www.w3.org/2000/svg">
<path d="M17.5391 2.16666H8.46079C4.51746 2.16666 2.16663 4.5175 2.16663 8.46083V17.5392C2.16663 21.4825 4.51746 23.8333 8.46079 23.8333H17.5391C21.4825 23.8333 23.8333 21.4825 23.8333 17.5392V8.46083C23.8333 4.5175 21.4825 2.16666 17.5391 2.16666ZM10.8008 16.1417L8.36329 18.5792C8.20079 18.7417 7.99496 18.8175 7.78913 18.8175C7.58329 18.8175 7.36663 18.7417 7.21496 18.5792L6.40246 17.7667C6.07746 17.4525 6.07746 16.9325 6.40246 16.6183C6.71663 16.3042 7.22579 16.3042 7.55079 16.6183L7.78913 16.8567L9.65246 14.9933C9.96663 14.6792 10.4758 14.6792 10.8008 14.9933C11.115 15.3075 11.115 15.8275 10.8008 16.1417ZM10.8008 8.55833L8.36329 10.9958C8.20079 11.1583 7.99496 11.2342 7.78913 11.2342C7.58329 11.2342 7.36663 11.1583 7.21496 10.9958L6.40246 10.1833C6.07746 9.86916 6.07746 9.34916 6.40246 9.035C6.71663 8.72083 7.22579 8.72083 7.55079 9.035L7.78913 9.27333L9.65246 7.41C9.96663 7.09583 10.4758 7.09583 10.8008 7.41C11.115 7.72416 11.115 8.24416 10.8008 8.55833ZM19.0233 18.005H13.3358C12.8916 18.005 12.5233 17.6367 12.5233 17.1925C12.5233 16.7483 12.8916 16.38 13.3358 16.38H19.0233C19.4783 16.38 19.8358 16.7483 19.8358 17.1925C19.8358 17.6367 19.4783 18.005 19.0233 18.005ZM19.0233 10.4217H13.3358C12.8916 10.4217 12.5233 10.0533 12.5233 9.60916C12.5233 9.165 12.8916 8.79666 13.3358 8.79666H19.0233C19.4783 8.79666 19.8358 9.165 19.8358 9.60916C19.8358 10.0533 19.4783 10.4217 19.0233 10.4217Z" fill="#D2D2D2"/>
</svg>
