<svg width="27" height="18" viewBox="0 0 27 18" fill="none" xmlns="http://www.w3.org/2000/svg">
<path d="M26.7448 0.100199L26.9351 10.7495C26.9351 10.7889 26.9154 10.8283 26.876 10.8414L25.0126 11.655C24.7698 11.7141 24.527 11.5697 24.4548 11.327L24.1924 10.4083C24.1924 10.3952 24.1858 10.3821 24.1858 10.3755L21.8302 2.18676L21.6793 1.6684C21.6465 1.54373 21.6596 1.41906 21.7187 1.30752C21.7777 1.20253 21.8762 1.1238 21.9943 1.09099L26.6398 0.0083371C26.6726 0.00177558 26.6989 0.0148983 26.7186 0.0280214C26.7251 0.0411444 26.7448 0.0608294 26.7448 0.100199Z" fill="#D2D2D2"/>
<path d="M21.2527 2.54753L23.5165 10.3951L22.7881 11.1234L21.6399 9.97517C21.3905 9.72584 21.0624 9.58804 20.7081 9.58804C20.3604 9.58804 20.0257 9.72584 19.7764 9.97517C19.527 10.2245 19.3893 10.5526 19.3893 10.9069C19.3893 10.9397 19.3893 10.9791 19.3958 11.0119C19.0218 10.9791 18.6347 11.1038 18.346 11.3925C18.0638 11.6746 17.9392 12.0552 17.9654 12.4226C17.9326 12.4226 17.9064 12.4226 17.8735 12.4226C17.5258 12.4226 17.1911 12.5539 16.9418 12.8098C16.6597 13.0919 16.535 13.4725 16.5547 13.8399C16.1807 13.8137 15.8001 13.9383 15.518 14.2205C14.9996 14.7388 14.9996 15.5787 15.518 16.0905L16.6662 17.2322L16.2594 17.639C16.0298 17.8752 15.7279 17.9999 15.3998 17.9999C15.0783 17.9999 14.7699 17.8687 14.5403 17.639C14.3106 17.4094 14.186 17.1075 14.186 16.7795C14.186 16.6286 14.2188 16.4711 14.2778 16.3333C14.3434 16.1758 14.4287 16.0446 14.5469 15.9265C14.6715 15.8018 14.6715 15.5984 14.5469 15.4737C14.4812 15.4081 14.4025 15.3819 14.3172 15.3819C14.2319 15.3819 14.1532 15.4147 14.0875 15.4737L12.6571 16.9041C12.1847 17.3766 11.4039 17.3766 10.9315 16.9041C10.7018 16.6745 10.5771 16.3727 10.5771 16.0446C10.5771 15.7165 10.7018 15.4147 10.9315 15.185L10.938 15.1785L13.1492 12.9672C13.2739 12.8426 13.2739 12.6392 13.1492 12.5145C13.0246 12.3898 12.8212 12.3898 12.6965 12.5145L10.4787 14.7323L9.8488 15.3622C9.61915 15.5984 9.31076 15.7231 8.98924 15.7231C8.66773 15.7231 8.35934 15.5918 8.12968 15.3622C7.65725 14.8898 7.65725 14.1089 8.12968 13.6365L8.64804 13.1181L10.9774 10.7888C11.1021 10.6641 11.1021 10.4607 10.9774 10.3361C10.8527 10.2114 10.6493 10.2114 10.5246 10.3361L8.1953 12.6654C7.97221 12.8885 7.67038 13.0132 7.34886 13.0132C7.3423 13.0132 7.3423 13.0132 7.3423 13.0132C7.02079 13.0132 6.71239 12.8819 6.48274 12.6523C6.29902 12.4686 6.18091 12.2323 6.14154 11.983C6.13498 11.9174 6.12842 11.8518 6.12842 11.7927C6.12842 11.4646 6.25309 11.1628 6.48274 10.9332L12.0469 5.36899C12.3487 5.06059 12.7752 4.88343 13.2017 4.88343C13.3461 4.88343 13.497 4.90312 13.6414 4.94905H13.6479C13.9366 5.02779 14.1925 5.19182 14.4091 5.41492L16.1479 7.29807C16.1544 7.30463 16.1544 7.30463 16.1544 7.30463C16.535 7.67864 17.0599 7.89517 17.598 7.89517C18.1426 7.89517 18.6544 7.6852 19.0415 7.30463C19.6714 6.66817 19.8223 5.6905 19.4024 4.90968C18.9628 4.07637 18.2672 3.00028 17.283 2.14728C18.2476 2.1604 19.8092 2.2457 21.2527 2.54753Z" fill="#D2D2D2"/>
<path d="M22.5717 12.0946C22.5717 12.2718 22.506 12.4424 22.3748 12.5736C22.1124 12.8361 21.6727 12.8361 21.4103 12.5736C21.3906 12.5539 21.3643 12.5343 21.3381 12.5211L20.2882 11.4713C20.2751 11.445 20.2554 11.4122 20.2292 11.3925C20.1045 11.2679 20.0323 11.0973 20.0323 10.9136C20.0323 10.7364 20.098 10.5658 20.2292 10.4346C20.3539 10.3099 20.5245 10.2377 20.7082 10.2377C20.8853 10.2377 21.0559 10.3033 21.1872 10.4346L22.3748 11.6222C22.4142 11.6616 22.447 11.7009 22.4732 11.7469C22.4798 11.76 22.4864 11.7797 22.4995 11.7928C22.5454 11.8781 22.5717 11.9831 22.5717 12.0946Z" fill="#D2D2D2"/>
<path d="M21.5742 13.945C21.5742 14.1222 21.5086 14.2928 21.3774 14.424C21.2527 14.5487 21.0821 14.6208 20.8984 14.6208C20.7212 14.6208 20.5506 14.5552 20.4194 14.424L18.8053 12.8099C18.7856 12.7902 18.7659 12.7771 18.7528 12.7574C18.5362 12.4883 18.5559 12.0947 18.8053 11.8453C19.0677 11.5829 19.5073 11.5829 19.7698 11.8453L20.9509 13.0264L21.3774 13.4529C21.5021 13.5907 21.5742 13.7613 21.5742 13.945Z" fill="#D2D2D2"/>
<path d="M20.4326 15.3426C20.6951 15.605 20.6951 16.0446 20.4326 16.3071C20.1701 16.5696 19.7305 16.5696 19.4681 16.3071L18.8775 15.71C18.871 15.7034 18.871 15.7034 18.8644 15.6969L18.8578 15.6903L17.3946 14.2271C17.3946 14.2271 17.3946 14.2271 17.3881 14.2205C17.1256 13.9581 17.1322 13.525 17.3946 13.2625C17.5193 13.1379 17.6899 13.0657 17.8736 13.0657C18.0245 13.0657 18.1689 13.1116 18.2935 13.2035L18.3526 13.2625C18.3723 13.2822 18.392 13.2954 18.4117 13.3085L19.9339 14.8308C19.9405 14.8439 19.9536 14.857 19.9602 14.8636C19.9799 14.8832 20.0061 14.9029 20.0258 14.9226L20.4326 15.3426Z" fill="#D2D2D2"/>
<path d="M18.4051 16.1561C18.6675 16.4186 18.6675 16.8582 18.4051 17.1207C18.1426 17.3831 17.703 17.3831 17.4405 17.1207L17.388 17.0682C17.3749 17.0485 17.3618 17.0288 17.3421 17.0091C17.3224 16.9894 17.3027 16.9763 17.283 16.9632L15.9642 15.6443C15.7017 15.3819 15.7017 14.9422 15.9642 14.6798C16.2266 14.4173 16.6663 14.4173 16.9287 14.6798C16.9287 14.6798 16.9353 14.6798 16.9353 14.6863L18.4051 16.1561Z" fill="#D2D2D2"/>
<path d="M5.22953 1.30749C5.29515 1.41247 5.30827 1.5437 5.2689 1.66837L5.17704 1.99645L2.63773 10.802C2.63117 10.8217 2.62461 10.8414 2.61805 10.8676L2.48682 11.3335C2.45401 11.4516 2.37527 11.55 2.26372 11.6091C2.15874 11.6681 2.04063 11.6878 1.92909 11.6616L0.0656152 10.8414C0.0262461 10.8217 0 10.7889 0 10.7561L0.190284 0.100168C0.190284 0.060799 0.209969 0.0345526 0.223092 0.0214296C0.242776 0.00830652 0.269022 -0.00481622 0.30183 0.0017453L4.94083 1.0844C5.07206 1.12377 5.17048 1.2025 5.22953 1.30749Z" fill="#D2D2D2"/>
<path d="M18.8119 5.21162C19.1006 5.7431 18.9956 6.4255 18.5626 6.852C18.3001 7.11446 17.9458 7.25881 17.5783 7.25881C17.2109 7.25881 16.85 7.11446 16.5941 6.85856L14.8619 4.9754C14.5732 4.66045 14.1992 4.44392 13.8055 4.32581C13.6021 4.26676 13.3987 4.23395 13.1887 4.23395C12.5916 4.23395 12.0011 4.48329 11.5746 4.90979L6.01038 10.474C5.68887 10.7955 5.49859 11.2154 5.47234 11.6616C5.03272 11.5763 4.21909 11.3532 3.3136 10.7824L5.68887 2.54764L6.85026 3.19723C7.2177 3.40064 7.66389 3.38095 8.00509 3.16442C10.0917 1.83243 12.7294 1.43874 12.7556 1.43874H12.7688C13.9564 1.22221 15.085 1.4453 16.1086 2.08833C17.4143 2.90852 18.2936 4.23395 18.8119 5.21162Z" fill="#D2D2D2"/>
</svg>
